<svg xmlns="http://www.w3.org/2000/svg" viewBox="0 0 200 200" style="position: fixed; margin-right: 3px;">
<g stroke-width="1.10" fill="none" stroke-linecap="butt">
<path stroke="#7a6928" vector-effect="non-scaling-stroke" d="
  M 123.96 189.25
  Q 123.77 188.20 124.69 187.95
  Q 134.82 185.29 143.78 180.97
  A 1.40 1.25 80.6 0 0 144.50 179.83
  L 144.96 173.00"
/>
<path stroke="#f9e9a8" vector-effect="non-scaling-stroke" d="
  M 144.96 173.00
  Q 148.12 167.50 152.71 165.81
  Q 154.31 165.22 154.50 163.53
  Q 155.39 155.50 154.71 149.75"
/>
<path stroke="#7a6928" vector-effect="non-scaling-stroke" d="
  M 154.71 149.75
  Q 158.14 143.23 161.04 150.00"
/>
<path stroke="#f9e9a8" vector-effect="non-scaling-stroke" d="
  M 161.04 150.00
  L 160.08 161.19
  A 0.53 0.32 -78.9 0 0 160.24 161.63
  L 160.46 161.75"
/>
<path stroke="#7a6928" vector-effect="non-scaling-stroke" d="
  M 160.46 161.75
  Q 158.78 166.16 162.77 167.15
  A 0.98 0.89 -58.6 0 0 163.62 166.90
  Q 176.90 154.60 184.48 138.14
  A 0.95 0.92 -49.1 0 0 184.43 137.26
  Q 182.96 134.99 180.54 133.75"
/>
<path stroke="#f9e9a8" vector-effect="non-scaling-stroke" d="
  M 180.54 133.75
  Q 180.30 132.53 178.94 131.31
  Q 168.15 121.66 158.84 115.10
  A 1.28 1.10 55.1 0 0 157.94 114.87
  Q 155.77 115.25 156.25 117.25
  Q 157.84 123.96 159.11 131.38
  Q 159.42 133.20 157.96 134.34
  Q 156.42 135.54 155.08 134.44
  Q 154.31 133.80 153.93 132.28
  Q 153.17 129.18 152.78 126.00
  Q 152.69 125.21 151.79 125.50"
/>
<path stroke="#7a6928" vector-effect="non-scaling-stroke" d="
  M 151.79 125.50
  Q 152.07 122.64 150.63 118.76
  A 1.09 0.93 0.2 0 0 149.95 118.17
  L 142.75 115.96"
/>
<path stroke="#f9e9a8" vector-effect="non-scaling-stroke" d="
  M 142.75 115.96
  L 139.96 112.74
  Q 139.46 112.16 139.39 111.96
  L 137.25 105.21"
/>
<path stroke="#7a6928" vector-effect="non-scaling-stroke" d="
  M 137.25 105.21
  Q 138.44 104.36 137.99 103.26
  Q 137.72 102.61 136.70 102.09
  Q 128.92 98.13 120.71 95.17
  Q 120.28 95.01 119.76 95.01
  Q 119.25 95.01 118.75 94.96"
/>
<path stroke="#f9e9a8" vector-effect="non-scaling-stroke" d="
  M 118.75 94.96
  Q 118.99 94.13 118.24 94.01
  Q 117.54 93.90 117.31 93.79
  Q 113.45 91.99 109.25 91.29"
/>
<path stroke="#7a6928" vector-effect="non-scaling-stroke" d="
  M 109.25 91.29
  Q 104.01 89.39 98.50 88.54"
/>
<path stroke="#f9e9a8" vector-effect="non-scaling-stroke" d="
  M 98.50 88.54
  Q 90.54 85.99 82.19 85.47
  A 0.68 0.65 -78.2 0 0 81.53 85.92
  Q 79.76 91.00 75.13 93.69
  Q 74.93 93.81 74.20 93.93
  Q 73.53 94.04 73.75 94.96"
/>
<path stroke="#7a6928" vector-effect="non-scaling-stroke" d="
  M 73.75 94.96
  L 67.06 95.24
  A 0.93 0.79 -76.2 0 0 66.34 95.76
  Q 58.71 111.20 56.04 128.25"
/>
<path stroke="#f9e9a8" vector-effect="non-scaling-stroke" d="
  M 56.04 128.25
  Q 54.17 133.72 54.54 139.50"
/>
<path stroke="#7a6928" vector-effect="non-scaling-stroke" d="
  M 54.54 139.50
  Q 53.57 144.71 53.79 150.00"
/>
<path stroke="#f9e9a8" vector-effect="non-scaling-stroke" d="
  M 53.79 150.00
  L 54.05 163.73
  A 1.27 1.21 7.0 0 0 55.00 164.89
  Q 61.66 166.65 64.08 173.43
  Q 64.37 174.24 65.00 174.79"
/>
<path stroke="#7a6928" vector-effect="non-scaling-stroke" d="
  M 65.00 174.79
  L 64.27 179.87
  A 0.97 0.91 -73.6 0 0 64.77 180.86
  Q 77.36 187.03 90.75 189.25
  Q 91.74 189.41 91.50 190.21"
/>
<path stroke="#a09044" stroke-opacity="0.996" vector-effect="non-scaling-stroke" d="
  M 12.75 75.21
  Q 13.67 75.31 13.94 74.19
  Q 16.00 65.60 20.69 56.19
  Q 20.85 55.85 20.71 55.25"
/>
<path stroke="#7a6928" vector-effect="non-scaling-stroke" d="
  M 25.25 47.96
  Q 29.80 47.57 29.64 50.69
  Q 29.57 51.98 28.14 54.44
  Q 22.03 64.94 19.12 76.77
  A 0.89 0.65 -67.6 0 0 19.33 77.62
  L 22.46 80.00"
/>
<path stroke="#f9e9a8" vector-effect="non-scaling-stroke" d="
  M 22.46 80.00
  Q 22.88 82.68 25.21 82.04
  Q 26.73 81.62 26.83 81.60
  Q 39.29 79.39 49.25 78.75
  Q 53.18 78.50 55.21 78.00"
/>
<path stroke="#7a6928" vector-effect="non-scaling-stroke" d="
  M 55.21 78.00
  Q 56.44 78.44 59.06 78.06
  A 1.16 1.15 -76.4 0 0 59.85 77.57
  Q 62.74 73.43 66.75 71.71"
/>
<path stroke="#f9e9a8" vector-effect="non-scaling-stroke" d="
  M 66.75 71.71
  Q 69.88 71.13 73.00 71.66
  A 0.91 0.81 22.3 0 0 73.83 71.37
  L 82.46 60.50"
/>
<path stroke="#7a6928" vector-effect="non-scaling-stroke" d="
  M 82.46 60.50
  L 92.75 50.29"
/>
<path stroke="#f9e9a8" vector-effect="non-scaling-stroke" d="
  M 92.75 50.29
  Q 93.46 49.88 93.81 49.21
  A 1.29 0.91 55.9 0 0 93.83 48.28
  Q 92.71 44.99 93.01 41.43
  A 1.57 1.57 19.0 0 0 92.31 40.00
  Q 85.91 35.82 80.04 34.00"
/>
<path stroke="#7a6928" vector-effect="non-scaling-stroke" d="
  M 80.04 34.00
  Q 75.46 31.21 70.29 29.75"
/>
<path stroke="#f9e9a8" vector-effect="non-scaling-stroke" d="
  M 70.29 29.75
  Q 67.34 28.19 64.06 27.64
  A 0.83 0.81 -66.9 0 0 63.27 27.97
  Q 59.11 33.58 52.00 34.29"
/>
<path stroke="#7a6928" vector-effect="non-scaling-stroke" d="
  M 52.00 34.29
  L 46.72 32.20
  A 0.85 0.78 33.3 0 0 45.87 32.34
  Q 42.64 35.31 39.68 38.54
  Q 37.76 40.63 36.50 40.99
  Q 33.91 41.73 32.46 38.25"
/>
<path stroke="#808080" vector-effect="non-scaling-stroke" d="
  M 80.04 34.00
  Q 75.73 41.11 72.69 49.64
  A 0.42 0.42 8.2 0 0 73.11 50.20
  Q 83.04 49.64 92.75 50.29"
/>
<path stroke="#808080" vector-effect="non-scaling-stroke" d="
  M 82.46 60.50
  L 70.41 60.24
  A 1.45 1.38 6.3 0 0 68.98 61.33
  L 66.75 71.71"
/>
<path stroke="#808080" vector-effect="non-scaling-stroke" d="
  M 55.21 78.00
  L 58.25 61.25
  A 0.85 0.84 -84.8 0 0 57.43 60.25
  L 30.68 60.25
  A 1.06 1.04 -75.5 0 0 29.76 60.80
  Q 24.84 70.00 22.46 80.00"
/>
<path stroke="#808080" vector-effect="non-scaling-stroke" d="
  M 98.50 88.54
  Q 99.11 91.38 98.55 94.20
  A 0.65 0.61 4.9 0 1 97.93 94.69
  L 73.75 94.96"
/>
<path stroke="#808080" vector-effect="non-scaling-stroke" d="
  M 70.29 29.75
  Q 65.38 39.09 61.56 49.52
  A 0.74 0.74 -79.7 0 1 60.87 50.00
  L 37.48 50.00
  Q 36.61 50.00 37.15 49.31
  Q 43.65 41.06 52.00 34.29"
/>
<path stroke="#808080" vector-effect="non-scaling-stroke" d="
  M 109.25 91.29
  Q 107.69 95.90 112.51 95.06
  Q 115.62 94.52 118.75 94.96"
/>
<path stroke="#808080" vector-effect="non-scaling-stroke" d="
  M 137.25 105.21
  L 109.62 105.25
  A 0.56 0.55 -90.0 0 0 109.07 105.81
  L 109.00 138.77
  A 0.67 0.67 0.4 0 0 109.66 139.44
  L 137.54 139.77
  A 1.03 1.03 8.0 0 0 138.55 139.01
  Q 141.26 128.75 142.19 118.92
  Q 142.20 118.83 142.15 117.59
  Q 142.12 116.65 142.75 115.96"
/>
<path stroke="#808080" vector-effect="non-scaling-stroke" d="
  M 151.79 125.50
  L 149.38 138.51
  A 1.00 0.95 -84.4 0 0 150.30 139.69
  L 176.68 139.77
  A 1.67 1.50 11.4 0 0 178.17 138.89
  L 180.54 133.75"
/>
<path stroke="#808080" vector-effect="non-scaling-stroke" d="
  M 160.46 161.75
  Q 166.05 156.64 170.40 150.47
  Q 170.72 150.02 170.20 150.02
  L 161.04 150.00"
/>
<path stroke="#808080" vector-effect="non-scaling-stroke" d="
  M 154.71 149.75
  L 146.82 150.00
  A 0.83 0.79 7.5 0 0 146.07 150.55
  Q 141.13 165.28 132.26 177.84
  Q 131.02 179.59 132.93 178.69
  L 144.96 173.00"
/>
<path stroke="#808080" vector-effect="non-scaling-stroke" d="
  M 65.00 174.79
  L 74.75 178.66
  Q 76.56 179.38 75.45 177.83
  Q 66.73 165.68 61.76 150.78
  A 1.06 1.02 80.5 0 0 60.78 150.05
  L 53.79 150.00"
/>
<path stroke="#808080" vector-effect="non-scaling-stroke" d="
  M 54.54 139.50
  L 57.57 139.50
  A 0.65 0.63 -5.8 0 0 58.21 138.74
  L 56.04 128.25"
/>
</g>
<path fill="#f3d250" d="
  M 123.96 189.25
  Q 123.77 188.20 124.69 187.95
  Q 134.82 185.29 143.78 180.97
  A 1.40 1.25 80.6 0 0 144.50 179.83
  L 144.96 173.00
  Q 148.12 167.50 152.71 165.81
  Q 154.31 165.22 154.50 163.53
  Q 155.39 155.50 154.71 149.75
  Q 158.14 143.23 161.04 150.00
  L 160.08 161.19
  A 0.53 0.32 -78.9 0 0 160.24 161.63
  L 160.46 161.75
  Q 158.78 166.16 162.77 167.15
  A 0.98 0.89 -58.6 0 0 163.62 166.90
  Q 176.90 154.60 184.48 138.14
  A 0.95 0.92 -49.1 0 0 184.43 137.26
  Q 182.96 134.99 180.54 133.75
  Q 180.30 132.53 178.94 131.31
  Q 168.15 121.66 158.84 115.10
  A 1.28 1.10 55.1 0 0 157.94 114.87
  Q 155.77 115.25 156.25 117.25
  Q 157.84 123.96 159.11 131.38
  Q 159.42 133.20 157.96 134.34
  Q 156.42 135.54 155.08 134.44
  Q 154.31 133.80 153.93 132.28
  Q 153.17 129.18 152.78 126.00
  Q 152.69 125.21 151.79 125.50
  Q 152.07 122.64 150.63 118.76
  A 1.09 0.93 0.2 0 0 149.95 118.17
  L 142.75 115.96
  L 139.96 112.74
  Q 139.46 112.16 139.39 111.96
  L 137.25 105.21
  Q 138.44 104.36 137.99 103.26
  Q 137.72 102.61 136.70 102.09
  Q 128.92 98.13 120.71 95.17
  Q 120.28 95.01 119.76 95.01
  Q 119.25 95.01 118.75 94.96
  Q 118.99 94.13 118.24 94.01
  Q 117.54 93.90 117.31 93.79
  Q 113.45 91.99 109.25 91.29
  Q 104.01 89.39 98.50 88.54
  Q 90.54 85.99 82.19 85.47
  A 0.68 0.65 -78.2 0 0 81.53 85.92
  Q 79.76 91.00 75.13 93.69
  Q 74.93 93.81 74.20 93.93
  Q 73.53 94.04 73.75 94.96
  L 67.06 95.24
  A 0.93 0.79 -76.2 0 0 66.34 95.76
  Q 58.71 111.20 56.04 128.25
  Q 54.17 133.72 54.54 139.50
  Q 53.57 144.71 53.79 150.00
  L 54.05 163.73
  A 1.27 1.21 7.0 0 0 55.00 164.89
  Q 61.66 166.65 64.08 173.43
  Q 64.37 174.24 65.00 174.79
  L 64.27 179.87
  A 0.97 0.91 -73.6 0 0 64.77 180.86
  Q 77.36 187.03 90.75 189.25
  Q 91.74 189.41 91.50 190.21
  Q 90.10 189.90 89.52 191.00
  Q 88.81 192.35 88.78 192.38
  Q 86.96 194.57 84.50 194.00
  Q 73.07 191.36 62.10 186.05
  A 1.96 1.94 -46.0 0 0 60.33 186.09
  Q 50.02 191.61 43.63 182.91
  Q 40.49 178.64 42.00 173.48
  A 1.83 1.83 30.6 0 0 41.53 171.66
  Q 38.59 168.77 35.55 165.58
  Q 33.32 163.25 30.70 159.73
  Q 28.42 156.68 26.00 153.75
  Q 24.14 151.50 20.10 143.29
  Q 10.11 123.01 10.42 101.21
  A 2.35 2.33 -74.3 0 0 9.28 99.16
  Q 1.10 94.29 1.75 86.77
  Q 2.11 82.72 4.58 79.85
  Q 7.17 76.84 11.49 75.96
  Q 12.24 75.81 12.75 75.21
  Q 13.67 75.31 13.94 74.19
  Q 16.00 65.60 20.69 56.19
  Q 20.85 55.85 20.71 55.25
  Q 22.53 51.32 25.25 47.96
  Q 29.80 47.57 29.64 50.69
  Q 29.57 51.98 28.14 54.44
  Q 22.03 64.94 19.12 76.77
  A 0.89 0.65 -67.6 0 0 19.33 77.62
  L 22.46 80.00
  Q 22.88 82.68 25.21 82.04
  Q 26.73 81.62 26.83 81.60
  Q 39.29 79.39 49.25 78.75
  Q 53.18 78.50 55.21 78.00
  Q 56.44 78.44 59.06 78.06
  A 1.16 1.15 -76.4 0 0 59.85 77.57
  Q 62.74 73.43 66.75 71.71
  Q 69.88 71.13 73.00 71.66
  A 0.91 0.81 22.3 0 0 73.83 71.37
  L 82.46 60.50
  L 92.75 50.29
  Q 93.46 49.88 93.81 49.21
  A 1.29 0.91 55.9 0 0 93.83 48.28
  Q 92.71 44.99 93.01 41.43
  A 1.57 1.57 19.0 0 0 92.31 40.00
  Q 85.91 35.82 80.04 34.00
  Q 75.46 31.21 70.29 29.75
  Q 67.34 28.19 64.06 27.64
  A 0.83 0.81 -66.9 0 0 63.27 27.97
  Q 59.11 33.58 52.00 34.29
  L 46.72 32.20
  A 0.85 0.78 33.3 0 0 45.87 32.34
  Q 42.64 35.31 39.68 38.54
  Q 37.76 40.63 36.50 40.99
  Q 33.91 41.73 32.46 38.25
  Q 36.72 32.66 41.19 28.62
  Q 42.45 27.48 42.07 25.82
  Q 40.51 18.94 44.41 14.65
  Q 51.34 7.03 61.18 13.41
  A 1.78 1.78 -40.9 0 0 62.89 13.53
  Q 103.93 -5.80 145.43 13.33
  A 1.27 1.27 -51.0 0 0 146.73 13.19
  Q 149.18 11.35 151.59 10.66
  Q 154.06 9.95 156.91 10.71
  Q 162.86 12.28 165.28 18.49
  Q 166.70 22.13 165.30 25.84
  A 1.18 1.01 34.1 0 0 165.62 27.01
  L 170.32 31.49
  A 2.36 2.07 55.9 0 0 172.53 32.07
  Q 177.09 30.59 180.97 32.28
  Q 184.57 33.85 186.72 37.63
  Q 190.10 43.58 185.98 50.36
  A 1.63 1.62 46.1 0 0 185.95 51.98
  Q 195.31 68.97 197.75 88.00
  Q 199.41 100.97 197.83 112.26
  Q 193.03 146.55 167.68 171.18
  A 2.08 2.06 60.4 0 0 167.13 173.22
  Q 169.26 180.71 164.30 185.32
  Q 161.03 188.35 156.98 188.79
  Q 152.54 189.27 148.68 186.05
  A 1.57 1.55 51.0 0 0 146.97 185.86
  Q 138.40 190.25 129.01 192.80
  Q 124.20 194.10 123.96 189.25
  Z
  M 47.50 23.79
  Q 49.04 27.86 52.53 28.07
  Q 55.57 28.26 57.69 25.80
  Q 60.62 22.39 57.00 17.96
  Q 54.22 14.85 50.44 16.94
  Q 46.45 19.14 47.50 23.79
  Z
  M 150.71 17.75
  Q 147.45 20.90 148.90 24.34
  Q 149.98 26.90 152.44 27.81
  Q 155.10 28.79 157.91 26.89
  Q 159.44 25.85 159.46 24.00
  Q 161.27 19.36 157.02 16.96
  Q 153.48 14.95 150.71 17.75
  Z
  M 175.21 37.50
  Q 169.61 39.91 171.00 44.64
  Q 171.97 47.90 174.98 48.99
  Q 178.80 50.36 181.50 46.04
  Q 184.12 39.93 178.02 37.46
  Q 176.59 36.89 175.21 37.50
  Z
  M 65.96 79.00
  Q 62.93 82.00 65.04 85.50
  Q 65.79 88.65 68.25 89.00
  Q 75.33 90.00 75.96 83.95
  Q 76.19 81.68 75.44 80.14
  Q 74.52 78.26 72.32 77.43
  Q 68.47 75.97 65.96 79.00
  Z
  M 10.50 82.46
  Q 4.51 86.49 9.21 92.00
  Q 11.89 94.39 14.78 93.52
  Q 17.18 92.80 18.40 90.51
  Q 19.71 88.04 18.44 85.31
  Q 16.07 80.24 10.50 82.46
  Z
  M 47.54 175.75
  Q 46.91 180.78 52.00 182.25
  Q 54.27 182.90 55.75 181.71
  Q 60.41 178.51 58.58 174.51
  Q 57.10 171.30 53.58 170.71
  Q 49.05 169.96 47.54 175.75
  Z
  M 152.21 181.25
  Q 156.53 185.15 160.50 181.00
  Q 163.17 178.21 161.25 174.71
  Q 160.23 171.58 156.75 171.25
  Q 153.17 170.91 151.41 173.67
  Q 148.69 177.90 152.21 181.25
  Z"
/>
<path fill="#4c4e38" fill-opacity="0.988" d="
  M 20.71 55.25
  Q 20.85 55.85 20.69 56.19
  Q 16.00 65.60 13.94 74.19
  Q 13.67 75.31 12.75 75.21
  Q 15.31 64.66 20.71 55.25
  Z"
/>
<g fill="#000000">
<path d="
  M 70.29 29.75
  Q 75.46 31.21 80.04 34.00
  Q 75.73 41.11 72.69 49.64
  A 0.42 0.42 8.2 0 0 73.11 50.20
  Q 83.04 49.64 92.75 50.29
  L 82.46 60.50
  L 70.41 60.24
  A 1.45 1.38 6.3 0 0 68.98 61.33
  L 66.75 71.71
  Q 62.74 73.43 59.85 77.57
  A 1.16 1.15 -76.4 0 1 59.06 78.06
  Q 56.44 78.44 55.21 78.00
  L 58.25 61.25
  A 0.85 0.84 -84.8 0 0 57.43 60.25
  L 30.68 60.25
  A 1.06 1.04 -75.5 0 0 29.76 60.80
  Q 24.84 70.00 22.46 80.00
  L 19.33 77.62
  A 0.89 0.65 -67.6 0 1 19.12 76.77
  Q 22.03 64.94 28.14 54.44
  Q 29.57 51.98 29.64 50.69
  Q 29.80 47.57 25.25 47.96
  L 32.46 38.25
  Q 33.91 41.73 36.50 40.99
  Q 37.76 40.63 39.68 38.54
  Q 42.64 35.31 45.87 32.34
  A 0.85 0.78 33.3 0 1 46.72 32.20
  L 52.00 34.29
  Q 43.65 41.06 37.15 49.31
  Q 36.61 50.00 37.48 50.00
  L 60.87 50.00
  A 0.74 0.74 -79.7 0 0 61.56 49.52
  Q 65.38 39.09 70.29 29.75
  Z"
/>
<path d="
  M 98.50 88.54
  Q 104.01 89.39 109.25 91.29
  Q 107.69 95.90 112.51 95.06
  Q 115.62 94.52 118.75 94.96
  Q 119.25 95.01 119.76 95.01
  Q 120.28 95.01 120.71 95.17
  Q 128.92 98.13 136.70 102.09
  Q 137.72 102.61 137.99 103.26
  Q 138.44 104.36 137.25 105.21
  L 109.62 105.25
  A 0.56 0.55 -90.0 0 0 109.07 105.81
  L 109.00 138.77
  A 0.67 0.67 0.4 0 0 109.66 139.44
  L 137.54 139.77
  A 1.03 1.03 8.0 0 0 138.55 139.01
  Q 141.26 128.75 142.19 118.92
  Q 142.20 118.83 142.15 117.59
  Q 142.12 116.65 142.75 115.96
  L 149.95 118.17
  A 1.09 0.93 0.2 0 1 150.63 118.76
  Q 152.07 122.64 151.79 125.50
  L 149.38 138.51
  A 1.00 0.95 -84.4 0 0 150.30 139.69
  L 176.68 139.77
  A 1.67 1.50 11.4 0 0 178.17 138.89
  L 180.54 133.75
  Q 182.96 134.99 184.43 137.26
  A 0.95 0.92 -49.1 0 1 184.48 138.14
  Q 176.90 154.60 163.62 166.90
  A 0.98 0.89 -58.6 0 1 162.77 167.15
  Q 158.78 166.16 160.46 161.75
  Q 166.05 156.64 170.40 150.47
  Q 170.72 150.02 170.20 150.02
  L 161.04 150.00
  Q 158.14 143.23 154.71 149.75
  L 146.82 150.00
  A 0.83 0.79 7.5 0 0 146.07 150.55
  Q 141.13 165.28 132.26 177.84
  Q 131.02 179.59 132.93 178.69
  L 144.96 173.00
  L 144.50 179.83
  A 1.40 1.25 80.6 0 1 143.78 180.97
  Q 134.82 185.29 124.69 187.95
  Q 123.77 188.20 123.96 189.25
  Q 122.08 188.68 119.75 189.50
  Q 106.02 194.31 91.50 190.21
  Q 91.74 189.41 90.75 189.25
  Q 77.36 187.03 64.77 180.86
  A 0.97 0.91 -73.6 0 1 64.27 179.87
  L 65.00 174.79
  L 74.75 178.66
  Q 76.56 179.38 75.45 177.83
  Q 66.73 165.68 61.76 150.78
  A 1.06 1.02 80.5 0 0 60.78 150.05
  L 53.79 150.00
  Q 53.57 144.71 54.54 139.50
  L 57.57 139.50
  A 0.65 0.63 -5.8 0 0 58.21 138.74
  L 56.04 128.25
  Q 58.71 111.20 66.34 95.76
  A 0.93 0.79 -76.2 0 1 67.06 95.24
  L 73.75 94.96
  L 97.93 94.69
  A 0.65 0.61 4.9 0 0 98.55 94.20
  Q 99.11 91.38 98.50 88.54
  Z"
/>
</g>
<g fill="#ffffff">
<path d="
  M 70.29 29.75
  Q 65.38 39.09 61.56 49.52
  A 0.74 0.74 -79.7 0 1 60.87 50.00
  L 37.48 50.00
  Q 36.61 50.00 37.15 49.31
  Q 43.65 41.06 52.00 34.29
  Q 59.11 33.58 63.27 27.97
  A 0.83 0.81 -66.9 0 1 64.06 27.64
  Q 67.34 28.19 70.29 29.75
  Z"
/>
<path d="
  M 80.04 34.00
  Q 85.91 35.82 92.31 40.00
  A 1.57 1.57 19.0 0 1 93.01 41.43
  Q 92.71 44.99 93.83 48.28
  A 1.29 0.91 55.9 0 1 93.81 49.21
  Q 93.46 49.88 92.75 50.29
  Q 83.04 49.64 73.11 50.20
  A 0.42 0.42 8.2 0 1 72.69 49.64
  Q 75.73 41.11 80.04 34.00
  Z"
/>
<path d="
  M 55.21 78.00
  Q 53.18 78.50 49.25 78.75
  Q 39.29 79.39 26.83 81.60
  Q 26.73 81.62 25.21 82.04
  Q 22.88 82.68 22.46 80.00
  Q 24.84 70.00 29.76 60.80
  A 1.06 1.04 -75.5 0 1 30.68 60.25
  L 57.43 60.25
  A 0.85 0.84 -84.8 0 1 58.25 61.25
  L 55.21 78.00
  Z"
/>
<path d="
  M 82.46 60.50
  L 73.83 71.37
  A 0.91 0.81 22.3 0 1 73.00 71.66
  Q 69.88 71.13 66.75 71.71
  L 68.98 61.33
  A 1.45 1.38 6.3 0 1 70.41 60.24
  L 82.46 60.50
  Z"
/>
<path d="
  M 98.50 88.54
  Q 99.11 91.38 98.55 94.20
  A 0.65 0.61 4.9 0 1 97.93 94.69
  L 73.75 94.96
  Q 73.53 94.04 74.20 93.93
  Q 74.93 93.81 75.13 93.69
  Q 79.76 91.00 81.53 85.92
  A 0.68 0.65 -78.2 0 1 82.19 85.47
  Q 90.54 85.99 98.50 88.54
  Z"
/>
<path d="
  M 109.25 91.29
  Q 113.45 91.99 117.31 93.79
  Q 117.54 93.90 118.24 94.01
  Q 118.99 94.13 118.75 94.96
  Q 115.62 94.52 112.51 95.06
  Q 107.69 95.90 109.25 91.29
  Z"
/>
<path d="
  M 137.25 105.21
  L 139.39 111.96
  Q 139.46 112.16 139.96 112.74
  L 142.75 115.96
  Q 142.12 116.65 142.15 117.59
  Q 142.20 118.83 142.19 118.92
  Q 141.26 128.75 138.55 139.01
  A 1.03 1.03 8.0 0 1 137.54 139.77
  L 109.66 139.44
  A 0.67 0.67 0.4 0 1 109.00 138.77
  L 109.07 105.81
  A 0.56 0.55 -90.0 0 1 109.62 105.25
  L 137.25 105.21
  Z"
/>
<path d="
  M 180.54 133.75
  L 178.17 138.89
  A 1.67 1.50 11.4 0 1 176.68 139.77
  L 150.30 139.69
  A 1.00 0.95 -84.4 0 1 149.38 138.51
  L 151.79 125.50
  Q 152.69 125.21 152.78 126.00
  Q 153.17 129.18 153.93 132.28
  Q 154.31 133.80 155.08 134.44
  Q 156.42 135.54 157.96 134.34
  Q 159.42 133.20 159.11 131.38
  Q 157.84 123.96 156.25 117.25
  Q 155.77 115.25 157.94 114.87
  A 1.28 1.10 55.1 0 1 158.84 115.10
  Q 168.15 121.66 178.94 131.31
  Q 180.30 132.53 180.54 133.75
  Z"
/>
<path d="
  M 56.04 128.25
  L 58.21 138.74
  A 0.65 0.63 -5.8 0 1 57.57 139.50
  L 54.54 139.50
  Q 54.17 133.72 56.04 128.25
  Z"
/>
<path d="
  M 154.71 149.75
  Q 155.39 155.50 154.50 163.53
  Q 154.31 165.22 152.71 165.81
  Q 148.12 167.50 144.96 173.00
  L 132.93 178.69
  Q 131.02 179.59 132.26 177.84
  Q 141.13 165.28 146.07 150.55
  A 0.83 0.79 7.5 0 1 146.82 150.00
  L 154.71 149.75
  Z"
/>
<path d="
  M 160.46 161.75
  L 160.24 161.63
  A 0.53 0.32 -78.9 0 1 160.08 161.19
  L 161.04 150.00
  L 170.20 150.02
  Q 170.72 150.02 170.40 150.47
  Q 166.05 156.64 160.46 161.75
  Z"
/>
<path d="
  M 53.79 150.00
  L 60.78 150.05
  A 1.06 1.02 80.5 0 1 61.76 150.78
  Q 66.73 165.68 75.45 177.83
  Q 76.56 179.38 74.75 178.66
  L 65.00 174.79
  Q 64.37 174.24 64.08 173.43
  Q 61.66 166.65 55.00 164.89
  A 1.27 1.21 7.0 0 1 54.05 163.73
  L 53.79 150.00
  Z"
/>
</g>
<g stroke-width="1.10" fill="none" stroke-linecap="butt">
<path stroke="#808080" vector-effect="non-scaling-stroke" d="
  M 137.25 23.04
  L 133.00 21.25
  Q 131.27 20.52 132.19 22.06
  L 133.79 24.75"
/>
<path stroke="#808080" vector-effect="non-scaling-stroke" d="
  M 124.04 29.00
  Q 118.75 21.02 109.75 17.23
  A 0.49 0.49 11.8 0 0 109.07 17.67
  L 109.00 32.46"
/>
<path stroke="#808080" vector-effect="non-scaling-stroke" d="
  M 98.50 33.46
  Q 99.10 25.50 98.48 17.56
  A 0.37 0.36 76.6 0 0 97.98 17.25
  Q 89.18 20.88 83.71 28.75"
/>
<path stroke="#808080" vector-effect="non-scaling-stroke" d="
  M 73.75 24.71
  L 75.57 21.72
  Q 75.94 21.12 75.26 21.37
  L 70.00 23.29"
/>
<path stroke="#7a6928" vector-effect="non-scaling-stroke" d="
  M 47.50 23.79
  Q 49.04 27.86 52.53 28.07
  Q 55.57 28.26 57.69 25.80
  Q 60.62 22.39 57.00 17.96"
/>
<path stroke="#7a6928" vector-effect="non-scaling-stroke" d="
  M 150.71 17.75
  Q 147.45 20.90 148.90 24.34
  Q 149.98 26.90 152.44 27.81
  Q 155.10 28.79 157.91 26.89
  Q 159.44 25.85 159.46 24.00"
/>
<path stroke="#808080" vector-effect="non-scaling-stroke" d="
  M 155.71 34.25
  Q 160.56 38.00 164.71 42.50"
/>
<path stroke="#808080" vector-effect="non-scaling-stroke" d="
  M 166.96 50.25
  L 147.30 50.02
  A 1.48 1.41 -9.0 0 1 145.94 49.08
  Q 142.55 39.37 137.50 30.21"
/>
<path stroke="#808080" vector-effect="non-scaling-stroke" d="
  M 168.71 60.25
  L 149.80 60.54
  A 0.43 0.41 83.6 0 0 149.41 61.05
  Q 152.63 76.88 153.79 93.00"
/>
<path stroke="#808080" vector-effect="non-scaling-stroke" d="
  M 142.21 82.00
  Q 141.43 71.71 138.49 60.79
  A 0.74 0.72 82.1 0 0 137.79 60.25
  L 126.75 60.29"
/>
<path stroke="#808080" vector-effect="non-scaling-stroke" d="
  M 116.00 50.04
  L 134.44 50.00
  A 0.59 0.59 79.2 0 0 134.99 49.19
  Q 131.93 41.43 127.96 34.25"
/>
<path stroke="#7a6928" vector-effect="non-scaling-stroke" d="
  M 175.21 37.50
  Q 169.61 39.91 171.00 44.64
  Q 171.97 47.90 174.98 48.99
  Q 178.80 50.36 181.50 46.04"
/>
<path stroke="#7a6928" vector-effect="non-scaling-stroke" d="
  M 175.21 37.75
  Q 175.04 39.30 176.54 39.50"
/>
<path stroke="#808080" vector-effect="non-scaling-stroke" d="
  M 117.96 60.50
  L 110.48 60.22
  A 1.44 1.43 -89.0 0 0 109.00 61.66
  L 109.04 84.00"
/>
<path stroke="#808080" vector-effect="non-scaling-stroke" d="
  M 98.75 82.21
  L 98.75 61.76
  A 1.52 1.49 -0.9 0 0 97.18 60.27
  L 91.00 60.46"
/>
<path stroke="#808080" vector-effect="non-scaling-stroke" d="
  M 141.96 95.00
  L 135.75 94.79"
/>
<path stroke="#808080" vector-effect="non-scaling-stroke" d="
  M 183.00 127.04
  Q 186.70 117.49 187.32 105.93
  A 0.86 0.84 -88.7 0 0 186.47 105.02
  L 161.79 105.25"
/>
<path stroke="#808080" vector-effect="non-scaling-stroke" d="
  M 160.50 94.96
  L 186.90 94.81
  A 0.62 0.62 87.4 0 0 187.51 94.14
  Q 186.04 76.76 178.50 62.00
  Q 177.30 59.65 175.04 60.50"
/>
<path stroke="#a09044" stroke-opacity="0.996" vector-effect="non-scaling-stroke" d="
  M 65.96 79.00
  Q 62.93 82.00 65.04 85.50"
/>
<path stroke="#f9e9a8" vector-effect="non-scaling-stroke" d="
  M 65.04 85.50
  Q 65.79 88.65 68.25 89.00
  Q 75.33 90.00 75.96 83.95
  Q 76.19 81.68 75.44 80.14
  Q 74.52 78.26 72.32 77.43
  Q 68.47 75.97 65.96 79.00"
/>
<path stroke="#a6a79c" stroke-opacity="0.996" vector-effect="non-scaling-stroke" d="
  M 65.04 85.50
  L 65.96 79.00"
/>
<path stroke="#7a6928" vector-effect="non-scaling-stroke" d="
  M 9.21 92.00
  Q 11.89 94.39 14.78 93.52
  Q 17.18 92.80 18.40 90.51
  Q 19.71 88.04 18.44 85.31
  Q 16.07 80.24 10.50 82.46"
/>
<path stroke="#808080" vector-effect="non-scaling-stroke" d="
  M 54.54 85.00
  L 54.01 94.37
  A 0.49 0.48 1.9 0 1 53.52 94.82
  L 22.75 94.96"
/>
<path stroke="#808080" vector-effect="non-scaling-stroke" d="
  M 54.29 110.50
  L 53.95 106.01
  A 0.81 0.78 88.0 0 0 53.17 105.25
  L 20.80 105.25
  A 0.61 0.60 87.4 0 0 20.20 105.91
  Q 21.71 123.74 29.65 138.99
  A 1.41 1.33 75.1 0 0 30.87 139.75
  L 48.46 139.50"
/>
<path stroke="#808080" vector-effect="non-scaling-stroke" d="
  M 47.75 149.96
  L 37.40 150.00
  Q 36.76 150.00 37.14 150.51
  Q 42.11 157.07 48.21 162.50"
/>
<path stroke="#808080" vector-effect="non-scaling-stroke" d="
  M 155.46 105.25
  Q 154.80 104.95 154.33 105.15
  A 1.03 0.70 87.1 0 0 153.86 105.93
  L 153.29 110.75"
/>
<path stroke="#7a6928" vector-effect="non-scaling-stroke" d="
  M 55.75 181.71
  Q 60.41 178.51 58.58 174.51
  Q 57.10 171.30 53.58 170.71
  Q 49.05 169.96 47.54 175.75"
/>
<path stroke="#7a6928" vector-effect="non-scaling-stroke" d="
  M 161.25 174.71
  Q 160.23 171.58 156.75 171.25
  Q 153.17 170.91 151.41 173.67
  Q 148.69 177.90 152.21 181.25"
/>
</g>
<path fill="#f3d250" d="
  M 175.21 37.75
  Q 176.50 38.14 176.54 39.50
  Q 175.04 39.30 175.21 37.75
  Z"
/>
<path fill="#4c4e38" fill-opacity="0.988" d="
  M 65.96 79.00
  L 65.04 85.50
  Q 62.93 82.00 65.96 79.00
  Z"
/>
<g fill="#000000">
<path d="
  M 137.25 23.04
  L 133.00 21.25
  Q 131.27 20.52 132.19 22.06
  L 133.79 24.75
  Q 129.25 27.65 124.04 29.00
  Q 118.75 21.02 109.75 17.23
  A 0.49 0.49 11.8 0 0 109.07 17.67
  L 109.00 32.46
  Q 103.53 31.11 98.50 33.46
  Q 99.10 25.50 98.48 17.56
  A 0.37 0.36 76.6 0 0 97.98 17.25
  Q 89.18 20.88 83.71 28.75
  L 73.75 24.71
  L 75.57 21.72
  Q 75.94 21.12 75.26 21.37
  L 70.00 23.29
  L 65.53 21.90
  A 1.43 1.18 80.4 0 1 64.80 21.27
  Q 63.90 19.60 65.56 18.81
  Q 102.76 1.18 141.00 17.75
  Q 143.42 18.80 142.89 20.84
  Q 142.50 22.34 140.82 22.86
  Q 139.10 23.40 137.25 23.04
  Z"
/>
<path d="
  M 150.71 17.75
  L 159.46 24.00
  Q 159.44 25.85 157.91 26.89
  Q 155.10 28.79 152.44 27.81
  Q 149.98 26.90 148.90 24.34
  Q 147.45 20.90 150.71 17.75
  Z"
/>
<path d="
  M 57.00 17.96
  Q 60.62 22.39 57.69 25.80
  Q 55.57 28.26 52.53 28.07
  Q 49.04 27.86 47.50 23.79
  L 57.00 17.96
  Z"
/>
<path d="
  M 137.50 30.21
  Q 142.55 39.37 145.94 49.08
  A 1.48 1.41 -9.0 0 0 147.30 50.02
  L 166.96 50.25
  L 170.37 53.42
  A 0.89 0.72 32.1 0 1 170.65 54.25
  L 168.71 60.25
  L 149.80 60.54
  A 0.43 0.41 83.6 0 0 149.41 61.05
  Q 152.63 76.88 153.79 93.00
  Q 153.80 93.71 153.38 94.18
  A 1.19 0.72 14.6 0 1 152.51 94.44
  L 148.81 94.19
  A 0.91 0.77 -8.8 0 1 148.07 93.74
  L 142.21 82.00
  Q 141.43 71.71 138.49 60.79
  A 0.74 0.72 82.1 0 0 137.79 60.25
  L 126.75 60.29
  Q 125.53 60.16 124.85 59.27
  Q 123.89 58.03 123.85 57.99
  Q 119.86 54.08 116.00 50.04
  L 134.44 50.00
  A 0.59 0.59 79.2 0 0 134.99 49.19
  Q 131.93 41.43 127.96 34.25
  Q 132.42 31.50 137.50 30.21
  Z"
/>
<path d="
  M 164.71 42.50
  Q 160.56 38.00 155.71 34.25
  L 161.58 31.75
  A 0.90 0.83 -33.3 0 1 162.54 31.91
  L 166.07 35.44
  A 1.67 1.65 -58.3 0 1 166.46 37.13
  L 164.71 42.50
  Z"
/>
<path d="
  M 175.21 37.50
  L 175.21 37.75
  Q 175.04 39.30 176.54 39.50
  L 181.50 46.04
  Q 178.80 50.36 174.98 48.99
  Q 171.97 47.90 171.00 44.64
  Q 169.61 39.91 175.21 37.50
  Z"
/>
<rect x="-5.19" y="-5.92" transform="translate(104.10,43.72) rotate(0.8)" width="10.38" height="11.84" rx="4.76"/>
<path d="
  M 117.96 60.50
  L 110.48 60.22
  A 1.44 1.43 -89.0 0 0 109.00 61.66
  L 109.04 84.00
  Q 109.21 85.17 108.57 84.92
  Q 107.93 84.68 107.89 84.67
  Q 103.26 83.68 98.75 82.21
  L 98.75 61.76
  A 1.52 1.49 -0.9 0 0 97.18 60.27
  L 91.00 60.46
  Q 93.82 56.75 97.59 54.04
  A 0.80 0.80 40.8 0 1 98.43 53.98
  Q 104.09 56.87 110.42 53.97
  A 0.88 0.79 -34.5 0 1 111.35 54.09
  L 117.96 60.50
  Z"
/>
<path d="
  M 183.00 127.04
  Q 186.70 117.49 187.32 105.93
  A 0.86 0.84 -88.7 0 0 186.47 105.02
  L 161.79 105.25
  Q 161.11 101.23 158.63 98.08
  A 1.14 0.94 35.8 0 1 158.40 97.19
  Q 158.80 95.51 160.50 94.96
  L 186.90 94.81
  A 0.62 0.62 87.4 0 0 187.51 94.14
  Q 186.04 76.76 178.50 62.00
  Q 177.30 59.65 175.04 60.50
  Q 175.16 59.49 176.19 56.44
  Q 176.75 54.78 178.26 54.92
  A 1.94 1.74 32.0 0 0 179.19 54.76
  Q 180.79 54.01 181.38 55.54
  Q 181.81 56.66 181.88 56.80
  Q 200.29 92.43 187.35 130.71
  A 0.38 0.37 -63.6 0 1 186.78 130.91
  Q 184.53 129.35 183.00 127.04
  Z"
/>
<path d="
  M 9.21 92.00
  Q 9.30 91.80 9.46 91.74
  A 0.47 0.27 -12.2 0 0 9.78 91.45
  Q 10.22 87.32 11.03 83.26
  Q 11.19 82.44 10.50 82.46
  Q 16.07 80.24 18.44 85.31
  Q 19.71 88.04 18.40 90.51
  Q 17.18 92.80 14.78 93.52
  Q 11.89 94.39 9.21 92.00
  Z"
/>
<path d="
  M 54.29 110.50
  L 53.95 106.01
  A 0.81 0.78 88.0 0 0 53.17 105.25
  L 20.80 105.25
  A 0.61 0.60 87.4 0 0 20.20 105.91
  Q 21.71 123.74 29.65 138.99
  A 1.41 1.33 75.1 0 0 30.87 139.75
  L 48.46 139.50
  L 47.75 149.96
  L 37.40 150.00
  Q 36.76 150.00 37.14 150.51
  Q 42.11 157.07 48.21 162.50
  Q 49.42 166.27 45.80 167.09
  A 0.92 0.86 60.0 0 1 44.97 166.84
  Q 17.88 139.29 16.00 100.20
  A 1.23 1.22 78.5 0 1 16.80 98.98
  Q 20.24 97.72 22.75 94.96
  L 53.52 94.82
  A 0.49 0.48 1.9 0 0 54.01 94.37
  L 54.54 85.00
  Q 55.13 83.88 57.82 84.12
  A 0.81 0.81 84.1 0 1 58.52 84.69
  Q 59.67 88.55 61.46 91.10
  A 0.86 0.83 40.6 0 1 61.54 91.95
  Q 57.34 101.00 54.29 110.50
  Z"
/>
<path d="
  M 135.75 94.79
  L 141.96 95.00
  Q 143.58 97.06 141.67 97.42
  Q 140.87 97.57 139.89 97.16
  Q 137.68 96.22 135.75 94.79
  Z"
/>
<path d="
  M 155.46 105.25
  Q 154.80 104.95 154.33 105.15
  A 1.03 0.70 87.1 0 0 153.86 105.93
  L 153.29 110.75
  Q 150.93 112.59 148.46 111.84
  Q 146.40 111.22 145.10 108.97
  Q 143.08 105.48 145.48 102.49
  Q 147.47 100.01 150.36 100.12
  Q 153.59 100.23 155.50 103.75
  Q 155.97 104.62 155.46 105.25
  Z"
/>
<path d="
  M 55.75 181.71
  Q 55.89 180.75 55.00 180.75
  Q 51.18 178.39 47.54 175.75
  Q 49.05 169.96 53.58 170.71
  Q 57.10 171.30 58.58 174.51
  Q 60.41 178.51 55.75 181.71
  Z"
/>
<path d="
  M 161.25 174.71
  L 152.21 181.25
  Q 148.69 177.90 151.41 173.67
  Q 153.17 170.91 156.75 171.25
  Q 160.23 171.58 161.25 174.71
  Z"
/>
</g>
<g fill="#ffffff">
<path d="
  M 98.50 33.46
  Q 97.64 34.50 96.46 35.05
  A 1.06 0.95 -41.9 0 1 95.55 35.05
  L 83.71 28.75
  Q 89.18 20.88 97.98 17.25
  A 0.37 0.36 76.6 0 1 98.48 17.56
  Q 99.10 25.50 98.50 33.46
  Z"
/>
<path d="
  M 124.04 29.00
  Q 123.84 29.75 123.09 30.12
  Q 118.34 32.46 113.69 35.01
  A 1.22 1.06 -47.4 0 1 112.78 35.11
  Q 110.53 34.36 109.00 32.46
  L 109.07 17.67
  A 0.49 0.49 11.8 0 1 109.75 17.23
  Q 118.75 21.02 124.04 29.00
  Z"
/>
<path d="
  M 73.75 24.71
  Q 71.72 24.40 70.00 23.29
  L 75.26 21.37
  Q 75.94 21.12 75.57 21.72
  L 73.75 24.71
  Z"
/>
<path d="
  M 137.25 23.04
  Q 136.37 25.42 133.79 24.75
  L 132.19 22.06
  Q 131.27 20.52 133.00 21.25
  L 137.25 23.04
  Z"
/>
<path d="
  M 155.71 34.25
  Q 160.56 38.00 164.71 42.50
  L 166.96 50.25
  L 147.30 50.02
  A 1.48 1.41 -9.0 0 1 145.94 49.08
  Q 142.55 39.37 137.50 30.21
  Q 139.77 28.68 143.47 28.10
  A 1.04 1.02 -24.5 0 1 144.41 28.44
  Q 149.22 33.96 155.71 34.25
  Z"
/>
<path d="
  M 127.96 34.25
  Q 131.93 41.43 134.99 49.19
  A 0.59 0.59 79.2 0 1 134.44 50.00
  L 116.00 50.04
  Q 114.35 49.68 115.00 48.00
  Q 116.37 44.48 115.62 41.24
  A 0.79 0.75 66.1 0 1 115.90 40.45
  Q 121.45 36.42 127.96 34.25
  Z"
/>
<path d="
  M 98.75 82.21
  L 81.93 79.64
  A 1.13 0.97 -8.0 0 1 81.15 79.14
  L 78.81 75.07
  A 1.08 1.00 -41.9 0 1 78.92 73.92
  Q 83.53 67.94 88.69 62.19
  Q 89.68 61.10 91.00 60.46
  L 97.18 60.27
  A 1.52 1.49 -0.9 0 1 98.75 61.76
  L 98.75 82.21
  Z"
/>
<path d="
  M 117.96 60.50
  Q 119.16 61.29 121.31 63.69
  Q 132.66 76.31 140.94 92.06
  Q 141.80 93.71 141.96 95.00
  L 135.75 94.79
  Q 118.15 87.93 111.75 86.00
  Q 109.50 85.32 109.04 84.00
  L 109.00 61.66
  A 1.44 1.43 -89.0 0 1 110.48 60.22
  L 117.96 60.50
  Z"
/>
<path d="
  M 126.75 60.29
  L 137.79 60.25
  A 0.74 0.72 82.1 0 1 138.49 60.79
  Q 141.43 71.71 142.21 82.00
  Q 141.68 82.10 141.19 81.31
  Q 134.40 70.35 126.81 61.44
  Q 126.37 60.92 126.75 60.29
  Z"
/>
<path d="
  M 168.71 60.25
  Q 168.84 61.15 168.53 62.01
  Q 162.93 77.54 154.91 91.97
  Q 154.86 92.06 154.71 92.57
  Q 154.56 93.11 153.79 93.00
  Q 152.63 76.88 149.41 61.05
  A 0.43 0.41 83.6 0 1 149.80 60.54
  L 168.71 60.25
  Z"
/>
<path d="
  M 160.50 94.96
  Q 159.87 94.48 160.44 93.44
  Q 168.25 78.99 175.04 60.50
  Q 177.30 59.65 178.50 62.00
  Q 186.04 76.76 187.51 94.14
  A 0.62 0.62 87.4 0 1 186.90 94.81
  L 160.50 94.96
  Z"
/>
<path d="
  M 65.04 85.50
  L 65.96 79.00
  Q 68.47 75.97 72.32 77.43
  Q 74.52 78.26 75.44 80.14
  Q 76.19 81.68 75.96 83.95
  Q 75.33 90.00 68.25 89.00
  Q 65.79 88.65 65.04 85.50
  Z"
/>
<path d="
  M 54.54 85.00
  L 54.01 94.37
  A 0.49 0.48 1.9 0 1 53.52 94.82
  L 22.75 94.96
  L 24.77 88.15
  A 0.90 0.74 -83.8 0 1 25.41 87.52
  Q 38.86 85.45 51.89 84.24
  Q 51.98 84.23 52.96 84.00
  Q 54.08 83.74 54.54 85.00
  Z"
/>
<path d="
  M 54.29 110.50
  Q 50.31 124.78 48.46 139.50
  L 30.87 139.75
  A 1.41 1.33 75.1 0 1 29.65 138.99
  Q 21.71 123.74 20.20 105.91
  A 0.61 0.60 87.4 0 1 20.80 105.25
  L 53.17 105.25
  A 0.81 0.78 88.0 0 1 53.95 106.01
  L 54.29 110.50
  Z"
/>
<path d="
  M 98.01 105.19
  A 0.73 0.73 -0.4 0 1 98.75 105.92
  L 98.75 138.28
  A 1.47 1.43 -89.8 0 1 97.31 139.75
  L 69.75 139.51
  A 0.72 0.71 83.7 0 1 69.07 138.96
  Q 65.00 122.62 64.57 105.81
  A 0.49 0.49 89.4 0 1 65.06 105.31
  L 98.01 105.19
  Z"
/>
<path d="
  M 155.46 105.25
  Q 156.61 108.95 153.29 110.75
  L 153.86 105.93
  A 1.03 0.70 87.1 0 1 154.33 105.15
  Q 154.80 104.95 155.46 105.25
  Z"
/>
<path d="
  M 183.00 127.04
  Q 181.97 126.67 180.19 125.06
  Q 173.43 118.97 161.65 110.05
  A 0.97 0.77 25.4 0 1 161.26 109.25
  L 161.79 105.25
  L 186.47 105.02
  A 0.86 0.84 -88.7 0 1 187.32 105.93
  Q 186.70 117.49 183.00 127.04
  Z"
/>
<path d="
  M 90.44 178.31
  Q 86.66 175.20 84.13 171.85
  Q 76.83 162.19 72.91 150.73
  A 0.38 0.37 80.1 0 1 73.25 150.23
  L 97.81 149.94
  A 0.54 0.52 87.7 0 1 98.34 150.45
  Q 99.25 166.44 98.46 182.44
  A 0.36 0.36 11.7 0 1 97.97 182.76
  Q 94.04 181.27 90.44 178.31
  Z"
/>
<path d="
  M 47.75 149.96
  L 48.21 162.50
  Q 42.11 157.07 37.14 150.51
  Q 36.76 150.00 37.40 150.00
  L 47.75 149.96
  Z"
/>
<path d="
  M 109.01 163.68
  Q 109.15 157.18 109.42 150.69
  A 0.54 0.54 5.2 0 1 109.94 150.17
  Q 122.22 149.69 134.50 150.23
  A 0.37 0.37 10.5 0 1 134.84 150.72
  Q 130.18 164.56 120.40 175.41
  Q 115.86 180.44 109.53 182.77
  A 0.37 0.36 79.7 0 1 109.05 182.43
  Q 108.82 173.06 109.01 163.68
  Z"
/>
</g>
</svg>
